# xmcd CD database file
#
# Track frame offsets:
#	150
#	56256
#	80306
#	109140
#	143409
#	181555
#	210029
#	238573
#	285244
#
# Disc length: 4376 seconds
#
# Revision: 0
# Processed by: cddbd v1.5.2PL0 Copyright (c) Steve Scherf et al.
# Submitted via: CDex 1.70beta2
#
DISCID=5e111609
DTITLE=Brad Mehldau - Highway Rider [CD2]
DYEAR=2010
DGENRE=Jazz
TTITLE0=We'll Cross The River Together
TTITLE1=Capriccio
TTITLE2=Sky Turning Grey (For Elliott Smith)
TTITLE3=Into The City
TTITLE4=Old West
TTITLE5=Come With Me
TTITLE6=Always Departing
TTITLE7=Always Returning
TTITLE8=Highway Rider (Commentary And Demo)
EXTD=YEAR: 2010
EXTT0=
EXTT1=
EXTT2=
EXTT3=
EXTT4=
EXTT5=
EXTT6=
EXTT7=
EXTT8=
PLAYORDER=
